/* XPM */
static char * editwin_minib_xpm[] = {
"139 12 4 1",
" 	c None",
".	c #0000FF",
"+	c #FF0000",
"@	c #007F00",
"                                ..         ...                                                                                 ..    ..    ",
" ++     ++                      ..         ...                                             @@@@@       @@@@@@@                 ..    ..    ",
" +++   +++     +      +                     ..                                             @@@@       @     @@     @@@@@       ..    ..    ",
"  +++ +++     ++      ++       ....         .. ..           ......     ...  ...            @@@       @     @ @    @@@@@@@      ..........  ",
"   +++++     +++      +++      ....         .......        .......     ...  ...            @@ @     @     @  @   @@@   @@@     ..........  ",
"    +++     ++++++++++++++       ..         ...  ..        ..    .      ..   ..            @  @@   @     @   @   @@     @@     ..    ..    ",
"    +++     ++++++++++++++       ..         ..    ..        ....        ..   ..                @  @@@@@@@   @    @@     @@     ..    ..    ",
"   +++++     +++      +++        ..         ..    ..          ....      ..   ..     @@         @  @     @  @     @@@   @@@     ..    ..    ",
"  +++ +++     ++      ++         ..         ..   ...      ..    ..      ..   ..      @@       @@  @     @ @       @@@@@@@      ..    ..    ",
" +++   +++     +      +       ........     ........       ........       .......      @@@    @@   @     @@         @@@@@       ....  ....  ",
" ++     ++                    ........     .......          .....        .......        @@@@@@    @@@@@@@                       ...   ...  ",
"                                                                                                                                           "};
