/* XPM */
static char * fleche_xpm[] = {
"42 14 7 1",
" 	c None",
".	c #FFA5A5",
"+	c #B50000",
"@	c #FF0000",
"#	c #AA0000",
"$	c #FF864F",
"%	c #FCC1A6",
"          .                    +          ",
"        ..@##                ++$@@        ",
"      ..@@@@@##            ++$$$$$@@      ",
"    ..@@@@@@@@@##        ++$$$$$$$$$@@    ",
"  ..@@@@@@@@@@@@@##    ++$$$$$$$$$$$$$@@  ",
" .@@@@@@@@@@@@@@@@@#  +$$$$$$$$$$$$$$$$$@ ",
"+++++++++++++++++++++%%%%%%%%%%%%%%%%%%%%%",
"+++++++++++++++++++++%%%%%%%%%%%%%%%%%%%%%",
" .@@@@@@@@@@@@@@@@@#  +$$$$$$$$$$$$$$$$$@ ",
"  ..@@@@@@@@@@@@@##    ++$$$$$$$$$$$$$@@  ",
"    ..@@@@@@@@@##        ++$$$$$$$$$@@    ",
"      ..@@@@@##            ++$$$$$@@      ",
"        ..@##                ++$@@        ",
"          .                    +          "};
