/* XPM */
static char * pp_minib_xpm[] = {
"256 15 3 1",
" 	c None",
".	c #FFFFFF",
"+	c #000000",
"                                                                                                               .................................................................................................................................................",
"                                                                                                               .................................................................................................................................................",
"                                                    +                                                          .................................................................................................................................................",
"       +              +         +++++++++++         +           ++++            +++                            .................................................................................................................................................",
"      +++             +              +              +          +    +          +   +                           .................................................................................................................................................",
"     +++++            +             +++             +         +      +             +                           .................................................................................................................................................",
"    +++++++           +            +++++        +++++++++     +      +             +                           .................................................................................................................................................",
"   +++++++++      +++++++++       +++++++        +++++++      +   +++++++        ++                            .................................................................................................................................................",
"       +           +++++++       +++++++++        +++++       +    +++++         +                             .................................................................................................................................................",
"       +            +++++            +             +++        +     +++          +                             .................................................................................................................................................",
"       +             +++             +              +         +      +                                         .................................................................................................................................................",
"       +              +              +         +++++++++++     +                 +                             .................................................................................................................................................",
"                                                                                                               .................................................................................................................................................",
"                                                                                                               .................................................................................................................................................",
"                                                                                                               ................................................................................................................................................."};
